<svg viewBox="0 0 48 47" xmlns="http://www.w3.org/2000/svg"><path d="M23.999 0C10.747 0 .001 10.787.001 24.097 0 34.74 6.877 43.772 16.415 46.958c1.2.222 1.638-.522 1.638-1.16 0-.573-.021-2.088-.033-4.098-6.676 1.456-8.085-3.23-8.085-3.23-1.09-2.784-2.664-3.525-2.664-3.525-2.18-1.495.165-1.465.165-1.465 2.408.17 3.675 2.483 3.675 2.483 2.142 3.683 5.618 2.62 6.986 2.002.217-1.557.838-2.619 1.524-3.221-5.33-.609-10.932-2.675-10.932-11.908 0-2.63.934-4.781 2.47-6.466-.247-.61-1.071-3.059.234-6.377 0 0 2.016-.647 6.6 2.47 1.916-.534 3.968-.801 6.009-.811 2.039.01 4.092.277 6.009.811 4.581-3.117 6.593-2.47 6.593-2.47 1.309 3.318.486 5.767.238 6.377 1.539 1.685 2.468 3.835 2.468 6.466 0 9.256-5.612 11.293-10.958 11.89.861.744 1.629 2.213 1.629 4.462 0 3.22-.03 5.819-.03 6.61 0 .644.432 1.394 1.65 1.157 9.53-3.192 16.4-12.217 16.4-22.858C48 10.787 37.255 0 23.999 0" fill-rule="evenodd" fill="#FFF"/></svg>